<?xml version="1.0" encoding="utf-8"?>
<!-- Generator: Adobe Illustrator 16.0.0, SVG Export Plug-In . SVG Version: 6.00 Build 0)  -->
<!DOCTYPE svg PUBLIC "-//W3C//DTD SVG 1.1//EN" "http://www.w3.org/Graphics/SVG/1.1/DTD/svg11.dtd">
<svg version="1.1" id="레이어_1" xmlns="http://www.w3.org/2000/svg" xmlns:xlink="http://www.w3.org/1999/xlink" x="0px"
	 y="0px" width="1920px" height="692.402px" viewBox="0 0 1920 692.402" enable-background="new 0 0 1920 692.402"
	 xml:space="preserve">
<path opacity="0.7" fill="#FFFFFF" d="M384.832,599.688c6.955,0.039,13.926,0.279,20.87-0.229
	c6.927-0.508,13.621-2.112,20.391-3.573c13.396-2.89,26.848-5.608,40.002-9.487c25.84-7.619,50.656-18.367,75.955-27.545
	c25.829-9.369,50.778-20.921,76.117-31.498c25.265-10.547,50.495-21.308,76.244-30.631c26.028-9.425,52.878-16.839,79.82-23.165
	c13.339-3.132,26.872-5.613,40.409-7.725c12.129-1.893,24.838-3.366,37.104-1.881c4.372,0.528,10.007,1.798,12.188,6.119
	c2.396,4.746-2.268,9.46-5.635,12.259c-4.389,3.647-9.731,6.322-14.795,8.889c-5.722,2.899-11.612,5.45-17.599,7.751
	c-12.081,4.642-24.5,8.226-36.886,11.938c-13.505,4.05-26.94,8.33-40.368,12.63c-26.852,8.597-53.757,16.996-80.504,25.922
	c-13.365,4.46-26.735,8.908-40.192,13.084c-12.974,4.024-26.115,7.604-38.741,12.662c-12.389,4.961-24.409,10.812-36.522,16.396
	c-11.863,5.469-23.862,10.646-35.375,16.839c-10.913,5.872-20.63,13.283-31.085,19.85c-10.248,6.436-20.985,12.344-28.899,21.727
	c-3.826,4.535-7.425,9.265-11.217,13.825c-2.701,3.248-4.526,7.73-1.863,11.601c2.354,3.419,7,4.167,10.833,4.443
	c6.353,0.456,12.786,0.07,19.088-0.787c12.965-1.764,25.147-6.139,37.496-10.26c13.491-4.503,27.05-8.798,40.51-13.392
	c26.133-8.919,51.965-18.699,78.254-27.168c26.201-8.438,52.937-15.389,79.509-22.562c26.879-7.255,54.218-12.426,81.001-20.057
	c13.358-3.807,26.662-7.805,40.089-11.362c13.29-3.522,26.529-8.535,40.207-10.236c6.462-0.804,13.015-1.286,19.3-3.09
	c6.095-1.748,11.912-4.364,18.145-5.642c6.03-1.236,12.162-1.956,18.11-3.586c6.172-1.692,11.601-4.563,16.769-8.307
	c2.3-1.666,4.455-3.555,7.011-4.827c2.695-1.342,5.66-2.131,8.172-3.835c4.367-2.965,7.069-7.673,10.25-11.753
	c3.199-4.105,5.241-8.412,6.221-13.542c1.192-6.242,2.263-12.704,2.208-19.074c-0.054-6.185-1.724-11.837-3.375-17.733
	c-1.526-5.451-1.545-11.339-4.292-16.392c-1.538-2.827-5.856-0.307-4.317,2.523c1.426,2.623,1.855,5.511,2.327,8.423
	c0.483,2.979,1.187,5.858,2.037,8.753c1.875,6.374,2.958,12.431,2.453,19.1c-0.448,5.905-1.125,12.513-3.177,18.109
	c-1.821,4.966-5.874,9.699-9.24,13.729c-1.709,2.046-3.569,3.713-5.985,4.868c-2.608,1.245-5.387,2.074-7.831,3.655
	c-5.412,3.502-10.054,7.809-16.205,10.096c-5.787,2.149-11.939,3.087-17.993,4.148c-6.264,1.101-12.092,2.96-18.094,5.017
	c-12.569,4.305-26.008,4.077-38.776,7.681c-13.17,3.717-26.377,7.294-39.541,11.028c-13.19,3.741-26.322,7.692-39.564,11.25
	c-13.258,3.56-26.682,6.222-40.043,9.333c-26.732,6.226-53.148,13.973-79.594,21.302c-26.224,7.267-51.873,16.409-77.496,25.525
	c-26.117,9.294-52.489,17.761-78.725,26.7c-12.135,4.135-24.644,7.264-37.524,7.511c-3.405,0.066-11.697,1.04-14.068-2.389
	c-1.415-2.045,0.516-4.416,1.825-5.936c1.956-2.272,3.904-4.444,5.716-6.843c3.879-5.134,7.843-10.03,12.86-14.107
	c4.658-3.785,9.819-6.916,14.925-10.049c10.422-6.396,20.106-13.867,30.72-19.958c10.842-6.223,22.214-11.432,33.599-16.564
	c12.313-5.551,24.457-11.479,36.868-16.812c12.499-5.369,25.468-9.27,38.468-13.206c13.238-4.008,26.378-8.325,39.501-12.692
	c26.572-8.842,53.254-17.285,79.924-25.823c13.242-4.238,26.477-8.498,39.771-12.57c12.437-3.811,24.987-7.27,37.265-11.582
	c11.865-4.168,23.556-9.065,34.409-15.458c6.924-4.078,17.316-11.263,15.072-20.732c-2.274-9.592-13.945-11.328-22.131-11.703
	c-12.678-0.582-25.271,0.948-37.756,3.027c-27.085,4.512-53.54,11.134-79.974,18.504c-26.04,7.261-51.274,17.072-76.258,27.325
	c-25.05,10.281-49.938,20.915-74.849,31.524c-25.012,10.653-50.603,19.83-75.995,29.526c-12.394,4.734-24.864,9.305-37.595,13.059
	c-13.154,3.88-26.606,6.598-40.002,9.487c-6.516,1.406-12.95,2.987-19.622,3.436c-6.76,0.452-13.542,0.226-20.31,0.188
	C381.614,594.67,381.61,599.67,384.832,599.688"/>
<path opacity="0.7" fill="#FFFFFF" d="M969.015,453.328c-3.22-10.24-9.352-21.296-18.131-27.764
	c-9.392-6.92-20.066-5.189-30.077-0.519c-9.123,4.256-16.258,12.383-16.673,22.836c-0.292,7.336,3.768,13.441,9.828,17.266
	c6.385,4.029,14.186,5.693,21.623,6.28c10.39,0.82,19.53-1.991,29.062-5.957c18.331-7.624,44.121-18.908,47.647-41.143
	c3.112-19.628-12.64-35.474-29.134-43.12c-10.447-4.843-21.473-6.261-32.901-6.34c-13.138-0.092-25.866,1.472-38.039,6.683
	c-10.72,4.592-18.711,12.229-25.168,21.829c-6.865,10.206-14.65,22.038-26.683,26.722c-5.281,2.055-12.028,2.18-17.617,1.483
	c-5.511-0.686-10.58-3.498-14.2-7.699c-7.675-8.908-7.493-21.629-3.683-32.145c2.101-5.801,5.268-11.108,8.876-16.087
	c1.759-2.427,3.532-4.853,5.359-7.227c1.187-1.542,2.516-3.126,2.712-5.141c0.745-7.663-11.393-6.962-16.116-7.417
	c-11.108-1.07-21.47-8.538-28.975-16.353c-8.08-8.415-15.014-19.858-13.952-31.952c1.074-12.237,9.086-23.151,17.703-31.367
	c8.908-8.495,19.323-15.93,30.978-20.118c11.128-3.999,25.553-6.259,37.111-2.938c6.654,1.91,11.551,7.117,12.034,14.212
	c0.423,6.218-1.839,12.831-2.787,18.955c-1.802,11.655-4.52,25.243-1.11,36.835c2.759,9.375,10.803,15.403,20.439,16.315
	c11.463,1.085,22.241-5.376,30.784-12.346c8.357-6.82,15.264-15.66,18.415-26.083c2.921-9.662,2.951-21.122-3.154-29.608
	c-2.696-3.748-6.48-7.07-11.246-7.535c-4.681-0.456-10.091,0.965-14.289,3.003c-7.871,3.822-10.737,13.111-9.834,21.31
	c0.992,9.019,6.295,16.393,14.715,19.878c9.041,3.741,19.307,2.869,28.582,0.513c10.748-2.729,20.816-8.036,29.167-15.326
	c8.132-7.099,13.611-15.943,15.067-26.752c1.432-10.617-1.057-21.897-6.828-30.951c-13.936-21.861-44.403-16.949-65.96-13.755
	c-6.952,1.031-13.863,2.383-20.862,3.065c-5.603,0.548-12.691,1.681-17.62-1.712c-8.216-5.655-9.571-18.333-9.229-27.416
	c0.21-5.564,1.438-11.41,4.825-15.959c1.658-2.225,3.864-4.023,6.333-5.275c2.485-1.261,5.361-1.383,7.653-3.013
	c1.533-1.09,1.68-3.256,0-4.317c-1.555-0.982-3.237-0.969-4.939-1.572c-2.254-0.797-4.354-2.194-6.462-3.313
	c-4.483-2.378-8.813-4.859-12.231-8.688c-5.986-6.701-9.047-15.982-9.732-24.833c-0.815-10.517,1.286-21.572,7.17-30.438
	c5.33-8.03,13.243-15.209,21.166-20.626c8.062-5.513,17.656-9.358,27.296-10.998c8.386-1.427,23.645,1.196,23.32,12.461
	c-0.141,4.882-2.261,10.079-4.104,14.537c-2.178,5.269-4.876,10.312-7.594,15.317c-4.953,9.124-9.672,18.19-12.524,28.228
	c-3.679,12.946-8.18,35.515,6.595,43.552c15.87,8.631,34.534-4.805,43.782-17.35c5.351-7.257,8.734-16.374,7.846-25.468
	c-1.019-10.429-4.529-20.846-7.332-30.898c-2.951-10.58-7.042-21.811-6.894-32.901c0.127-9.496,2.796-19.248,8.401-26.992
	c10.507-14.516,33.885-24.277,49.988-12.604c7.809,5.66,11.814,16.589,12.975,25.821c0.527,4.202,0.363,8.415-0.538,12.551
	c-0.825,3.789-2.076,8.741-5.479,11.063c1.255,0.72,2.509,1.439,3.763,2.159c0.354-4.356,4.74-9.291,7.254-12.732
	c3.202-4.382,6.935-8.254,11.731-10.875c8.57-4.681,19.011-6.653,28.628-4.625c16.727,3.527,29.002,19.54,27.984,36.692
	c-0.241,4.053-1.351,8.193-3.737,11.529c-2.663,3.725-6.958,6.341-10.825,8.638c-8.52,5.06-17.872,8.486-27.008,12.235
	c-9.505,3.9-19.004,7.833-28.33,12.149c-8.907,4.123-17.978,8.394-25.992,14.115c-12.443,8.886-26.809,24.517-22.984,41.257
	c3.888,17.021,23.819,18.991,37.157,12.373c7.425-3.685,12.544-10.335,16.996-17.103c4.9-7.449,10.011-14.6,15.678-21.494
	c10.675-12.99,23.17-25.948,39.111-32.253c8.637-3.417,19.169-5.601,27.779-0.927c4.919,2.671,8.036,7.208,6.826,12.964
	c-1.198,5.696-3.563,11.235-6.412,16.286c-5.351,9.494-13.17,17.332-22.292,23.242c-4.894,3.171-10.139,5.754-15.578,7.847
	c-2.539,0.979-5.148,1.753-7.695,2.703c-1.333,0.497-3.538,2.031-4.995,1.626c0.368,1.394,0.735,2.785,1.104,4.178
	c4.918-4.756,10.87-7.959,16.874-11.128c5.948-3.14,11.99-6.146,18.311-8.47c11.495-4.226,25.783-7.67,37.691-3.247
	c11.685,4.342,19.877,15.021,15.826,27.675c-3.533,11.038-13.24,19.773-23.458,24.624c-10.62,5.042-22.605,6.475-34.207,7.203
	c-11.768,0.739-23.576,0.81-35.331,1.762c-11.472,0.931-22.983,2.752-33.62,7.324c-8.692,3.738-18.797,9.903-23.258,18.633
	c-4.39,8.594-0.636,18.162,9.046,20.176c10.537,2.191,22.35-2.151,30.863-8.275c14.52-10.443,23.816-33.089,15.392-50.057
	c-4.107-8.274-13.206-10.261-20.863-5.137c-9.173,6.14-8.444,19.681-7.279,29.342c1.407,11.674,5.421,23.831,12.657,33.235
	c7.036,9.146,18.54,12.761,29.76,11.164c11.34-1.613,21.39-6.846,28.614-15.792c6.208-7.688,13.381-19.566,25.021-14.088
	c12.876,6.061,5.525,22.054-1.224,30.016c-7.807,9.209-19.229,15.932-30.241,20.556c-5.914,2.482-12.058,4.336-18.319,5.708
	c-2.8,0.613-2.106,4.882,0.665,4.91c9.652,0.099,19.169-4.156,28.749-1.48c6.744,1.883,14.029,6.015,16.764,12.824
	c3.27,8.142-1.276,17.071-6.855,22.95c-5.816,6.13-13.232,10.305-21.57,11.779c-8.22,1.454-17,0.345-24.294-3.818
	c-7.624-4.352-13.247-11.328-18.896-17.877c-10.642-12.337-22.571-26.705-37.632-33.727c-11.38-5.306-32.423-8.672-39.789,4.899
	c-6.178,11.383,0.839,26.751,9.643,34.59c9.783,8.71,22.685,12.805,34.79,17.124c8.466,3.021,16.992,5.706,25.795,7.571
	c8.35,1.769,16.89,2.449,25.214,4.322c9.033,2.032,18.517,6.14,23.617,14.329c5.65,9.072-3.541,15.077-11.284,17.438
	c-9.236,2.816-19.263,4.083-28.863,4.626c-5.405,0.305-10.711,0.066-16.104-0.244c-4.489-0.259-9.55,0.392-13.665-1.751
	c-0.199,1.523-0.398,3.046-0.598,4.569c3.343-0.909,7.353,0.477,10.574,1.408c3.701,1.071,7.446,2.2,10.942,3.835
	c7.968,3.726,14.192,12.968,9.58,21.673c-4.573,8.63-14.78,10.466-23.688,10.398c-5.175-0.039-10.32-0.707-15.417-1.557
	c-3.912-0.653-7.999-1.607-11.965-0.847c-7.983,1.53-10.505,9.618-9.59,16.784c1.164,9.125,2.365,18.326,3.741,27.426
	c1.315,8.692,3.783,17.593,9.823,24.252c5.584,6.157,13.415,9.613,21.025,12.557c19.133,7.399,39.744,9.844,59.646,14.372
	c20.037,4.559,40.544,7.981,60.925,10.615c10.892,1.406,21.872,1.985,32.731,3.652c10.027,1.539,20.07,2.924,30.169,3.909
	c10.317,1.007,20.688,1.711,31.046,2.137c10.654,0.439,21.271-0.151,31.926-0.163c8.88-0.01,19.154,1.531,27.399-2.56
	c5.527-2.744,9.284-9.245,3.487-13.951c-6.14-4.985-16.316-5.438-23.795-6.309c-10.746-1.251-21.379-3.166-32.087-4.702
	c-20.622-2.958-41.466-3.895-62.178-6.054c-21.229-2.214-41.728-6.387-62.368-11.731c-19.683-5.096-39.777-9.839-58.601-17.687
	c-3.9-1.626-19.234-7.593-13.5-13.912c2.157-2.378,6.295-2.379,9.246-2.393c3.739-0.016,7.549,0.128,11.282,0.36
	c10.788,0.671,21.272,3.654,31.718,6.229c9.997,2.466,20.097,4.453,30.2,6.424c20.978,4.089,41.596,9.748,62.574,13.761
	c41.844,8.004,82.851,19.688,124.719,27.543c20.754,3.893,41.669,6.691,62.352,10.993c10.386,2.16,20.73,4.516,31.045,6.993
	c10.086,2.422,20.135,5.252,30.38,6.928c9.974,1.631,20.067,2.329,30.106,3.423c3.193,0.348,3.17-4.655,0-5
	c-10.932-1.191-21.95-1.865-32.764-3.952c-10.199-1.968-20.25-4.771-30.355-7.165c-20.641-4.888-41.415-9.253-62.38-12.501
	c-21.25-3.293-42.325-7.334-63.283-12.155c-20.614-4.74-41.076-10.129-61.745-14.631c-10.646-2.318-21.373-4.188-32.053-6.334
	c-10.307-2.068-20.457-4.799-30.691-7.185c-20.554-4.79-41.396-8.117-61.88-13.238c-9.603-2.399-19.323-4.759-29.252-5.203
	c-6.422-0.287-14.61-1.522-20.459,1.782c-5.61,3.169-6.274,10.075-2.25,14.724c4.745,5.482,12.649,8.241,19.212,10.736
	c19.184,7.294,39.111,12.015,58.896,17.292c20.154,5.376,40.487,8.916,61.231,11.041c21.376,2.19,42.861,3.194,64.121,6.422
	c10.022,1.522,19.986,3.125,30.051,4.343c4.879,0.591,9.773,1.328,14.471,2.82c3.783,1.202,8.734,3.793,3.52,7.147
	c-3.701,2.38-8.137,2.726-12.42,2.758c-5.787,0.044-11.575-0.085-17.362-0.043c-10.431,0.075-20.791,0.537-31.223,0.026
	c-10.355-0.505-20.718-1.215-31.03-2.284c-10.765-1.117-21.41-2.937-32.138-4.311c-10.446-1.337-20.978-1.911-31.398-3.453
	c-10.401-1.539-20.78-3.255-31.145-5.028c-10.63-1.819-21.109-4.066-31.631-6.412c-9.812-2.188-19.744-3.758-29.55-5.967
	c-10.095-2.272-20.146-5.113-29.563-9.456c-8.341-3.847-14.965-9.169-18.277-17.977c-3.344-8.896-3.738-18.563-4.93-27.899
	c-0.968-7.599-6.167-23.507,6.737-23.048c4.101,0.146,8.184,1.208,12.244,1.752c4.969,0.668,9.991,1.104,15.009,0.823
	c8.041-0.452,16.083-2.646,21.541-8.938c5.706-6.578,6.224-14.773,2.224-22.378c-3.59-6.824-10.074-10.054-17.105-12.473
	c-5.695-1.96-13.107-4.91-19.151-3.266c-2.002,0.544-2.535,3.559-0.597,4.569c3.474,1.81,7.285,2.149,11.145,2.282
	c4.613,0.159,9.229,0.552,13.843,0.584c10.031,0.072,20.069-1.237,29.897-3.17c6.65-1.307,13.726-3.085,18.979-7.612
	c5.479-4.723,6.885-11.719,3.419-18.099c-8.733-16.083-28.815-17.852-44.813-20.437c-16.822-2.72-33.559-8.224-49.222-14.929
	c-13.244-5.669-26.163-14.831-26.938-30.558c-1.022-20.814,27.703-15.406,38.908-8.476c16.219,10.03,27.172,26.206,40.237,39.663
	c5.674,5.844,12.304,10.802,20.244,13.021c8.057,2.253,16.925,1.979,24.887-0.55c15.441-4.903,33.749-22.803,26.298-40.433
	c-3.188-7.539-10.593-12.401-18.113-14.916c-10.838-3.625-20.936,0.864-31.867,0.753c0.222,1.637,0.443,3.273,0.664,4.91
	c11.944-2.615,23.466-7.146,33.822-13.677c8.898-5.611,17.476-12.464,22.447-21.936c4.76-9.068,7.126-20.266-1.865-27.583
	c-6.612-5.381-16.338-5.607-23.102-0.4c-4.323,3.327-7.376,7.924-10.707,12.168c-3.652,4.654-7.825,8.57-13.152,11.241
	c-10.689,5.361-25.271,6.783-34.912-1.472c-8.825-7.558-13.143-21.12-14.88-32.205c-1.466-9.354-3.03-29.157,11.241-29.045
	c8.107,0.063,9.989,12.044,9.675,18.176c-0.548,10.688-5.248,21.295-13.247,28.467c-7.675,6.882-21.124,12.922-31.488,9.495
	c-5.503-1.82-6.688-7.503-4.27-12.373c2.151-4.335,6.19-7.754,10.077-10.496c19.203-13.548,43.773-13.221,66.273-14.184
	c21.422-0.917,44.783-2.03,61.458-17.33c7.364-6.757,13.679-16.255,13.912-26.546c0.246-10.782-7.054-19.387-16.261-24.088
	c-10.479-5.352-22.326-4.553-33.486-2.002c-12.099,2.768-23.249,8.201-34.104,14.08c-5.245,2.84-10.246,5.967-14.552,10.131
	c-1.361,1.316-0.685,3.681,1.104,4.178c3.195,0.888,6.449-1.227,9.4-2.214c5.194-1.74,10.313-3.716,15.216-6.174
	c8.806-4.417,16.941-10.505,23.463-17.904c6.711-7.614,11.677-16.755,14.428-26.526c1.304-4.629,1.795-9.335-0.748-13.663
	c-1.979-3.369-5.12-6.048-8.604-7.76c-15.756-7.743-35.129,0.957-47.995,10.568c-14.308,10.687-26.585,25.252-36.481,40.056
	c-5.226,7.816-9.913,16.542-18.494,21.177c-7.604,4.107-18.98,5.5-25.793-0.763c-7.193-6.614-5.891-16.745-1.709-24.648
	c4.798-9.072,12.721-16.223,21.293-21.673c18.75-11.921,40.342-19.385,60.753-27.882c8.942-3.722,17.893-7.828,25.384-14.085
	c6.56-5.479,9.002-14.146,8.513-22.46c-0.992-16.862-12.549-32.082-28.821-36.854c-9.407-2.758-19.767-1.967-28.882,1.493
	c-9.612,3.649-16.293,9.996-21.941,18.457c-2.576,3.86-5.559,7.618-5.946,12.387c-0.15,1.84,2.255,3.187,3.761,2.159
	c6.058-4.135,7.956-12.644,8.635-19.512c0.845-8.532-1.313-17.458-4.957-25.14c-3.66-7.716-9.299-13.915-17.434-16.873
	c-7.795-2.834-16.762-2.692-24.688-0.463c-17.769,4.996-30.471,20.95-33.542,38.762c-2.012,11.676,0.517,22.361,3.55,33.606
	c3.083,11.428,6.544,22.79,8.976,34.382c2.317,11.039-0.729,21.361-8.025,29.908c-6.368,7.461-16.218,15.261-26.456,15.524
	c-24.234,0.623-15.795-33.286-10.961-46.573c3.906-10.738,10.208-20.295,15.136-30.555c2.371-4.936,4.484-10.036,5.901-15.334
	c1.172-4.384,2.031-9.251-0.095-13.5c-4.22-8.435-15.243-12.013-24.06-11.264c-9.785,0.832-20.026,4.477-28.5,9.386
	c-8.639,5.004-16.599,11.993-23.043,19.599c-6.761,7.98-10.615,17.257-11.803,27.647c-1.091,9.541,0.161,19.374,4.012,28.197
	c3.869,8.865,10.165,15.051,18.601,19.617c2.211,1.196,4.414,2.471,6.667,3.582c1.924,0.948,4.59,1.055,6.328,2.153v-4.317
	c-1.886,1.342-4.564,1.578-6.69,2.553c-2.124,0.975-4.096,2.277-5.834,3.843c-3.623,3.263-6.001,7.724-7.315,12.377
	c-2.521,8.922-2.036,19.733,1.003,28.49c2.6,7.493,7.953,14.523,16.28,15.659c11.764,1.603,24.38-1.874,35.964-3.567
	c22.668-3.314,53.411-7.396,63.396,19.157c3.705,9.851,3.975,21.016-0.538,30.682c-4.448,9.528-13.496,16.666-22.575,21.557
	c-13.969,7.524-44.967,15.23-51.264-6.26c-2.327-7.941-0.475-17.978,8.107-21.041c5.187-1.851,10.814-3.122,15.178,1.048
	c3.858,3.688,5.853,8.909,6.295,14.156c0.898,10.648-3.381,21.234-10.135,29.315c-6.88,8.23-16.702,15.954-27.239,18.623
	c-10.498,2.659-21.715-1.835-24.491-12.859c-1.401-5.564-1.031-11.72-0.611-17.389c0.477-6.42,1.464-12.789,2.476-19.144
	c1.689-10.596,5.109-21.175-3.022-30.117c-7.246-7.969-20.17-8.046-30.044-7.099c-10.865,1.041-21.15,3.747-30.785,8.951
	c-9.576,5.171-18.502,12.172-25.921,20.133c-7.18,7.704-13.326,17.315-15.153,27.836c-1.793,10.333,1.479,20.516,7.126,29.15
	c5.701,8.715,13.581,16.308,22.607,21.525c4.528,2.618,9.503,4.687,14.65,5.685c3.017,0.585,6.084,0.468,9.127,0.817
	c1.073,0.123,3.919,0.235,4.643,1.154c0.918,1.165-1.325,3.083-2.183,4.222c-3.409,4.529-6.891,9.099-9.673,14.049
	c-5.133,9.131-8.436,19.703-6.867,30.237c1.296,8.702,5.778,16.696,13.248,21.533c8.081,5.232,20.104,5.772,29.191,3.011
	c9.927-3.015,18.44-11.54,24.532-19.62c6.986-9.267,12.151-19.505,22.249-25.928c10.542-6.706,23.676-9.583,36.022-9.984
	c11.472-0.373,23.151-0.077,34.006,4.021c16.31,6.157,34.494,21.572,30.212,41c-2.271,10.308-10.443,17.514-18.95,23.022
	c-9.933,6.432-20.878,11.415-31.956,15.522c-8.104,3.005-16.289,3.794-24.804,2.439c-6.677-1.063-14.241-3.203-18.904-8.428
	c-6.03-6.753-3.147-16.952,2.71-22.854c3.665-3.692,8.894-5.963,13.795-7.494c5.474-1.71,10.922-2.151,16.115,0.628
	c9.502,5.085,15.956,16.93,19.08,26.865C965.154,457.715,969.983,456.41,969.015,453.328"/>
<path opacity="0.7" fill="#FFFFFF" d="M1485.91,581.995c3.222-0.697,6.281,0.275,9.385,1.09c3.467,0.911,6.896,1.89,10.338,2.901
	c6.835,2.009,13.706,3.921,20.676,5.406c6.915,1.472,13.913,2.482,20.888,3.613c7.176,1.163,14.285,2.319,21.503,3.21
	c28.926,3.571,57.835,7.258,86.751,10.896c14.514,1.825,29.027,3.639,43.544,5.421c7.461,0.915,14.868,2.365,22.316,3.404
	c7.294,1.017,14.602,1.931,21.914,2.807c7.078,0.848,14.143,1.637,21.155,2.947c6.752,1.262,13.454,2.781,20.215,4
	c6.782,1.223,13.527,1.971,20.407,2.279c6.603,0.298,13.13,1.454,19.674,2.309c14.222,1.854,28.197,5.112,42.261,7.888
	c7.003,1.383,14.045,2.463,20.958,4.256c6.945,1.802,13.816,3.867,20.701,5.887c3.449,1.012,6.902,2.009,10.37,2.962
	c3.105,0.854,4.432-3.969,1.329-4.821c-13.895-3.822-27.604-8.658-41.814-11.18c-14.043-2.492-27.943-5.717-41.976-8.263
	c-7.042-1.277-14.171-2.09-21.265-3.032c-6.697-0.892-13.43-0.897-20.13-1.693c-13.755-1.635-27.136-5.49-40.88-7.23
	c-14.795-1.873-29.612-3.473-44.341-5.844c-14.59-2.349-29.296-3.942-43.961-5.781c-29.154-3.652-58.3-7.376-87.458-11
	c-7.414-0.921-14.943-1.539-22.286-2.917c-6.904-1.296-13.866-2.245-20.785-3.451c-14.188-2.473-27.699-7.158-41.649-10.551
	c-3.068-0.746-6.063-1.005-9.169-0.333C1481.438,577.854,1482.769,582.674,1485.91,581.995"/>
<path opacity="0.7" fill="#FFFFFF" d="M382.72,594.978c-6.347,0-12.739,0.222-19.076-0.185c-6.476-0.415-12.942-1.092-19.396-1.763
	c-6.359-0.661-12.721-1.328-19.106-1.682c-6.395-0.354-12.797-0.143-19.19-0.559c-6.495-0.422-12.964-1.003-19.468-1.277
	c-6.074-0.258-12.123-0.96-18.122-1.934c-6.017-0.976-11.948-2.326-17.923-3.516c-6.076-1.209-12.036-2.441-17.94-4.342
	c-6.079-1.958-12.319-2.778-18.493-4.316c-6.023-1.5-12.014-2.892-18.134-3.94c-12.725-2.182-25.506-4.03-38.321-5.597
	c-12.654-1.547-25.325-2.547-38.022-3.637c-12.637-1.084-25.082-3.18-37.802-3.031c-12.337,0.146-24.687,1.484-36.712,4.278
	c-6.184,1.438-12.239,3.329-18.288,5.245c-5.511,1.745-11.134,3.386-16.536,5.44c-2.263,0.861-3.975,2.156-5.297,4.199
	c-1.752,2.71,2.574,5.219,4.318,2.524c1.235-1.911,3.431-2.267,5.467-2.921c2.878-0.926,5.702-2.009,8.585-2.916
	c5.811-1.83,11.604-3.738,17.483-5.338c11.859-3.228,24.047-4.958,36.323-5.401c6.227-0.225,12.478-0.207,18.689,0.342
	c6.119,0.541,12.198,1.45,18.308,2.07c12.53,1.271,25.096,2.005,37.612,3.447c12.627,1.454,25.219,3.197,37.761,5.259
	c6.187,1.016,12.341,2.085,18.43,3.59c2.902,0.717,5.786,1.5,8.72,2.076c3.104,0.608,6.236,1.081,9.303,1.869
	c5.894,1.514,11.537,3.599,17.524,4.804c5.908,1.189,11.801,2.477,17.722,3.595c5.986,1.131,12.019,2.052,18.083,2.637
	c6.067,0.585,12.167,0.665,18.244,1.144c12.654,0.995,25.33,0.811,37.97,1.999c12.581,1.182,25.099,2.836,37.752,2.837
	c3.178,0,6.355-0.002,9.532-0.002C385.938,599.978,385.943,594.978,382.72,594.978"/>
</svg>
